<?xml version="1.0" encoding="UTF-8"?>
<svg id="_レイヤー_2" xmlns="http://www.w3.org/2000/svg" version="1.1" viewBox="0 0 1000.01 1000.01">
  <!-- Generator: Adobe Illustrator 29.4.0, SVG Export Plug-In . SVG Version: 2.1.0 Build 152)  -->
  <defs>
    <style>
      .st0 {
        fill: #fff;
      }

      .st1 {
        fill: #0866ff;
      }
    </style>
  </defs>
  <g id="Logo">
    <g id="Logo-2">
      <path id="Initiator" class="st1" d="M999.99,500C999.99,223.87,776.13.01,500,.01S0,223.87,0,500C0,734.48,161.44,931.24,379.22,985.28v-332.48h-103.1v-152.8h103.1v-65.84c0-170.18,77.02-249.06,244.1-249.06,31.68,0,86.34,6.22,108.7,12.42v138.5c-11.8-1.24-32.3-1.86-57.76-1.86-81.98,0-113.66,31.06-113.66,111.8v54.04h163.32l-28.06,152.8h-135.26v343.54c247.58-29.9,439.41-240.7,439.41-496.33h-.02Z"/>
      <path id="F" class="st0" d="M695.84,652.8l28.06-152.8h-163.32v-54.04c0-80.74,31.68-111.8,113.66-111.8,25.46,0,45.96.62,57.76,1.86v-138.5c-22.36-6.22-77.02-12.42-108.7-12.42-167.08,0-244.1,78.88-244.1,249.06v65.84h-103.1v152.8h103.1v332.48c38.68,9.6,79.14,14.72,120.78,14.72,20.5,0,40.72-1.26,60.58-3.66v-343.54h135.28Z"/>
    </g>
  </g>
</svg>