<?xml version="1.0" encoding="UTF-8"?>
<svg id="_レイヤー_2" xmlns="http://www.w3.org/2000/svg" version="1.1" viewBox="0 0 376 58.6">
  <!-- Generator: Adobe Illustrator 29.5.1, SVG Export Plug-In . SVG Version: 2.1.0 Build 141)  -->
  <defs>
    <style>
      .st0 {
        fill: #fff;
      }
    </style>
  </defs>
  <g id="_レイヤー_1-2">
    <g>
      <path class="st0" d="M97.2,38.1h-4.2v20.2h-3.4v-20.2h-4.3v-3.1h12v3.1Z"/>
      <path class="st0" d="M97.3,50.8c0-4.3,3.4-7.7,7.7-7.7s7.7,3.5,7.7,7.7-3.4,7.7-7.7,7.7-7.7-3.5-7.7-7.7ZM109.4,50.8c0-2.6-1.9-4.6-4.4-4.6s-4.4,2-4.4,4.6,1.8,4.6,4.4,4.6,4.4-2,4.4-4.6Z"/>
      <path class="st0" d="M119.7,51.9l-.5.5v5.8h-3.1v-14.8h3.1v5.3l4.8-5.3h4.1l-6.3,6.4,6.7,8.4h-4l-4.8-6.3h0Z"/>
      <path class="st0" d="M142.1,43.5l-6.2,12.1h3.8l-1,2.6h-7.4l2.7-5.5-4.6-9.3h3.6l2.8,6.3h0l2.8-6.3h3.5,0Z"/>
      <path class="st0" d="M143.8,50.8c0-4.3,3.4-7.7,7.7-7.7s7.7,3.5,7.7,7.7-3.4,7.7-7.7,7.7-7.7-3.5-7.7-7.7ZM155.9,50.8c0-2.6-1.9-4.6-4.4-4.6s-4.4,2-4.4,4.6,1.8,4.6,4.4,4.6,4.4-2,4.4-4.6Z"/>
      <path class="st0" d="M183.6,55.2l-.8,3h-14.7l10.4-20.2h-9.1l.9-3h13.4l-10.3,20.2h10.3Z"/>
      <path class="st0" d="M184.4,50.8c0-4.3,3.4-7.7,7.7-7.7s7.7,3.5,7.7,7.7-3.4,7.7-7.7,7.7-7.7-3.5-7.7-7.7ZM196.5,50.8c0-2.6-1.9-4.6-4.4-4.6s-4.4,2-4.4,4.6,1.9,4.6,4.4,4.6,4.4-2,4.4-4.6Z"/>
      <path class="st0" d="M206.8,51.9l-.5.5v5.8h-3.1v-14.8h3.1v5.3l4.8-5.3h4.1l-6.4,6.4,6.7,8.4h-4l-4.8-6.3h0Z"/>
      <path class="st0" d="M226.2,55.4v2.8h-8.5v-14.8h8.3v2.8h-5.2v3.1h5.2v2.6h-5.2v3.5s5.3,0,5.3,0Z"/>
      <path class="st0" d="M233.5,43.5v14.8h-3.1v-14.8h3.1Z"/>
      <path class="st0" d="M257.9,35h3.4v15.8c0,5.3-4,7.8-8.2,7.8s-8.2-2.5-8.2-7.8v-15.8h3.4v15.5c0,3.7,2.3,5,4.9,5s4.8-1.3,4.8-5v-15.5h0Z"/>
      <path class="st0" d="M279.5,43.5v14.8h-3.4l-6.4-10.2h-.1v10.2h-3.1v-14.8h3.5l6.3,10h0v-10h3.1Z"/>
      <path class="st0" d="M287.9,43.5v14.8h-3.1v-14.8h3.1Z"/>
      <path class="st0" d="M304.7,43.5l-5.5,14.9h-2.6l-5.5-14.9h3.5l3.3,10h0l3.4-10h3.4,0Z"/>
      <path class="st0" d="M316.3,55.4v2.8h-8.5v-14.8h8.3v2.8h-5.2v3.1h5.2v2.6h-5.2v3.5h5.3Z"/>
      <path class="st0" d="M324.2,52.4h-.6v5.8h-3.1v-14.8h4.8c3.1,0,5.3,1.5,5.3,4.4s-1.3,3.7-3.2,4.2l4.5,6.1h-3.8l-3.9-5.8ZM323.6,49.8h1c1.6,0,2.8-.3,2.8-1.9s-1.2-1.8-2.8-1.8h-1v3.7Z"/>
      <path class="st0" d="M339.7,54.2c0-.8-.4-1.4-2.4-2.4-2.5-1.3-3.2-2.4-3.2-4.4s2.2-4.3,4.7-4.3,3,.4,3.9,1.1l-1.1,2.5c-.8-.6-1.7-1-2.8-1s-1.6.7-1.6,1.4.3,1.1,1.8,2c2,1.1,3.8,2.1,3.8,5s-1.8,4.5-4.6,4.5-3.5-.5-5-1.6l1.1-2.6c1.3.9,2.7,1.4,3.6,1.4s1.7-.6,1.7-1.5Z"/>
      <path class="st0" d="M350,43.5v14.8h-3.1v-14.8h3.1Z"/>
      <path class="st0" d="M361.7,46.4h-2.6v11.8h-3.1v-11.8h-2.6v-2.9h8.4v2.9h0Z"/>
      <path class="st0" d="M376,43.5l-6.2,12.1h3.8l-1,2.6h-7.5l2.7-5.5-4.6-9.3h3.5l2.8,6.3h0l2.8-6.3h3.5Z"/>
    </g>
    <g>
      <path class="st0" d="M107.9,24.4c-3.7-1.3-7.5-3.7-10.2-6.3v7.1c0,0-2.7,0-2.7,0v-7c-2.5,2.6-6.1,5-9.6,6.2-.2-.5-1.2-1.6-1.7-2.3,3.2-.9,7.2-3,9.4-5.1h-5.5V7.1h7.5v-1.9h-10.5v-2.5h10.5V.4h2.8v2.3h10.9v2.5h-10.9v1.9h7.5v9.9h-5.6c2.3,2,6.4,4,9.6,4.9-.5.7-1.3,1.9-1.5,2.4h0ZM90.3,11h4.8v-1.6h-4.8v1.6ZM95.1,14.8v-1.7h-4.8v1.7h4.8ZM97.8,9.4v1.6h4.8v-1.6h-4.8ZM102.7,13.1h-4.8v1.7h4.8s0-1.7,0-1.7Z"/>
      <path class="st0" d="M111.2,21.2c1.9-.8,4.8-2.8,6-4.8l2.2,1.4c-1.7,2.4-4.1,4.5-6.5,5.7-.3-.5-1.2-1.6-1.8-2.3h0ZM111.7,2.8h10.5V0h3.1v2.7h10.7v2.5h-24.3v-2.5ZM119.8,25.3c-.3-.7-1-2-1.4-2.8,0,0,1.2.1,2.4.1s1.7-.3,1.7-.9v-6.4h-6.7v-7.7h16.1v7.7h-6.5v7.1c0,1.8-1.5,2.9-5.6,2.9h0ZM129.1,13v-3.2h-10.4v3.2h10.4ZM136.6,21.3c-.6.8-1.5,1.8-1.8,2.3-2-1.1-4.8-3.3-6.7-5.6l2.2-1.5c1.3,1.7,4.4,3.9,6.3,4.8h0Z"/>
      <path class="st0" d="M163.6,21c-.2.9-.6,2.2-.8,2.8-2,.3-6.4.5-9.5.5s-7.7-.8-9.4-3c-1.1,1-3.1,2.4-4,3-.2-.4-.9-1.7-1.3-2.6.8-.3,2.8-1.6,3.7-2.3v-6.1h-3.3v-2.5h6v8c.7,1.9,3.8,2.9,8.4,2.9s7.8-.4,10.1-.8h0ZM139.8,2.8l1.9-1.5c1,1,2.5,2.7,3.6,4.5l-2.1,1.7c-1-1.7-2.4-3.6-3.4-4.7ZM148.2,8.2l-2.2-1.6c1-1.1,2.6-4,2.8-5.7l2.4.6c-.1.4-.3,1-.6,1.8h2.8V.6h2.5v2.8h5.8v2.3h-5.8v3h7.2v2.4h-16.9v-2.4h7.3v-3h-3.7c-.5,1-1,1.9-1.5,2.6h0ZM160.9,19.8h-12.3v-6.9h12.3v6.9ZM158.4,15.2h-7.3v2.2h7.3v-2.2Z"/>
      <path class="st0" d="M174.9,24.6v-11.9h-3c-.3,5.4-1.8,9.7-4.2,12.3-.5-.6-1.4-1.5-2-2.1,1.8-1.9,3.2-5.2,3.5-10.2h-3v-2.6h3.1v-5.6h-2.4V1.9h12.9v2.6h-2.1v5.6h2.3v2.6h-2.3v11.9h-2.7ZM174.9,4.5h-2.9v5.6h2.9v-5.6ZM179.9,24.6c-.3-.6-1.1-1.7-1.6-2.5,3.8-1,8.7-4.4,10.9-7.6l1.7,2.2c-2.4,3.3-7,6.6-11,7.9h0ZM179.5,6.9c2.6-1.1,6.4-3.8,8.1-6.2l1.7,2.1c-2.6,2.7-5.5,5.1-8.3,6.5-.3-.6-1-1.8-1.5-2.5ZM188.5,7.4l1.5,2.3c-2.4,2.8-5.9,5.5-8.8,6.9-.4-.8-1-1.9-1.4-2.5,3.6-1.6,7.3-4.8,8.7-6.7h0Z"/>
      <path class="st0" d="M218.1,22c-.6.8-1.4,2.1-1.7,2.7-4.8-2-8.7-6.8-10.8-12.1-1.6,5.8-5.6,9.8-10.6,12.1-.4-.8-1.2-1.9-1.7-2.6,6-2.5,9.2-7.1,10.2-12.4h-9.4v-2.8h9.8c0-.9.1-2.4.1-3.5V.5c0,0,3.1,0,3.1,0,0,2.9-.1,5.2-.2,6.2h10.5v2.8h-9.9c1.6,5.9,5.9,10.5,10.6,12.4h0Z"/>
      <path class="st0" d="M234.7,22.2c0,1.7-1.4,2.8-5.5,2.8-.3-.7-.8-1.9-1.3-2.7,0,0,1.2,0,2.3,0s1.7-.3,1.7-.8v-3.5h-10.8v-2.6h10.8v-2h1c.6-.4,1.9-1.2,2.9-1.9h-9.3v-2.3h12.6l1,1.6c-1,1-3.6,2.8-5.4,3.8v.8h10.1v2.6h-10.1v4.2h0ZM221.9,4.7h14.5c1-1.3,2.4-3.5,2.8-4.6l2.6,1c-.8,1.3-1.7,2.8-2.4,3.6h4.6v6.2h-2.7v-3.9h-16.7v3.9h-2.7v-6.2h0ZM223.8,1.3l2.6-.9c.6.7,1.8,2.1,2.4,3.2l-2.4,1c-.8-1.2-1.7-2.4-2.7-3.3h0ZM232.4,4.2c-.5-1.1-1.6-2.6-2.2-3.5L232.7,0c.6.8,1.7,2.3,2.1,3.3l-2.4.9h0Z"/>
    </g>
    <path class="st0" d="M0,.4v57.8h61.7V.4H0ZM3.4,8.3l21,21L3.4,50.3V8.3ZM58.3,50.3l-20.3-20.3h20.3v20.3ZM58.3,27h-18.8l18.8-18.8v18.8ZM35,27h-4.5l27.8,27.8h-8.4l-21.2-21.1-2.3,2.3,18.9,18.9H3.4l23.3-23.3h4.5L3.4,3.8h8.4l21.2,21.1,2.3-2.3L16.3,3.8h42l-23.3,23.3h0Z"/>
  </g>
</svg>